<svg width="17" height="17" viewBox="0 0 17 17" fill="none" xmlns="http://www.w3.org/2000/svg">
<g clip-path="url(#clip0_1:560)">
<path d="M6.46089 12.7073C5.27734 12.7073 4.31445 13.6702 4.31445 14.8537C4.31445 16.0373 5.27734 17.0002 6.46089 17.0002C7.64445 17.0002 8.60733 16.0373 8.60733 14.8537C8.60733 13.6702 7.64441 12.7073 6.46089 12.7073ZM6.46089 15.7123C5.98739 15.7123 5.60233 15.3272 5.60233 14.8537C5.60233 14.3802 5.98739 13.9952 6.46089 13.9952C6.93417 13.9952 7.31946 14.3802 7.31946 14.8537C7.31946 15.3272 6.9344 15.7123 6.46089 15.7123Z" fill="white"/>
<path d="M12.8145 12.7073C11.631 12.7073 10.6681 13.6702 10.6681 14.8537C10.6681 16.0373 11.631 17.0002 12.8145 17.0002C13.9981 17.0002 14.961 16.0373 14.961 14.8537C14.961 13.6702 13.9981 12.7073 12.8145 12.7073ZM12.8145 15.7123C12.341 15.7123 11.956 15.3272 11.956 14.8537C11.956 14.3802 12.341 13.9952 12.8145 13.9952C13.288 13.9952 13.6731 14.3802 13.6731 14.8537C13.6731 15.3272 13.288 15.7123 12.8145 15.7123Z" fill="white"/>
<path d="M16.538 4.19268C16.4157 4.03898 16.2302 3.9495 16.034 3.9495H4.75886L4.17353 0.991282C4.12223 0.732199 3.9179 0.530657 3.65795 0.48301L1.08223 0.0107975C0.731739 -0.0538156 0.396887 0.17824 0.332705 0.5281C0.268524 0.87796 0.500115 1.21344 0.850008 1.27762L2.99515 1.67085L4.88487 11.2223C4.94453 11.5238 5.2092 11.7412 5.51656 11.7412H14.5316C14.8314 11.7412 15.0914 11.5346 15.159 11.242L16.6615 4.73831C16.7057 4.54706 16.6602 4.34615 16.538 4.19268ZM14.0194 10.4534H6.04541L5.01363 5.23758H15.2242L14.0194 10.4534Z" fill="white"/>
</g>
<defs>
<clipPath id="clip0_1:560">
<rect width="17" height="17" fill="white"/>
</clipPath>
</defs>
</svg>
